{
  "accessors": [
    {
      "bufferView": 1,
      "componentType": 5126,
      "count": 65532,
      "max": [
        164.2580108642578,
        113.44000244140625,
        394.9100036621094
      ],
      "min": [
        8.776000022888184,
        1.3280000686645508,
        0.0
      ],
      "type": "VEC3"
    },
    {
      "bufferView": 1,
      "byteOffset": 786384,
      "componentType": 5126,
      "count": 65532,
      "max": [
        0.9999750256538391,
        0.9999737739562988,
        1.0
      ],
      "min": [
        -0.9999731779098511,
        -0.9999541640281677,
        -1.0
      ],
      "type": "VEC3"
    },
    {
      "bufferView": 0,
      "componentType": 5125,
      "count": 309603,
      "type": "SCALAR"
    },
    {
      "bufferView": 1,
      "byteOffset": 1572768,
      "componentType": 5126,
      "count": 65532,
      "max": [
        161.11801147460938,
        107.79000854492188,
        394.968017578125
      ],
      "min": [
        2.9020001888275146,
        1.6460000276565552,
        0.0
      ],
      "type": "VEC3"
    },
    {
      "bufferView": 1,
      "byteOffset": 2359152,
      "componentType": 5126,
      "count": 65532,
      "max": [
        0.9999538064002991,
        0.9999370574951172,
        0.9999935030937195
      ],
      "min": [
        -0.9999831914901733,
        -0.9999910593032837,
        -0.9999986886978149
      ],
      "type": "VEC3"
    },
    {
      "bufferView": 0,
      "byteOffset": 1238412,
      "componentType": 5125,
      "count": 310161,
      "type": "SCALAR"
    },
    {
      "bufferView": 1,
      "byteOffset": 3145536,
      "componentType": 5126,
      "count": 65532,
      "max": [
        163.42401123046875,
        113.05000305175781,
        395.030029296875
      ],
      "min": [
        0.0,
        9.702000617980957,
        0.09000000357627869
      ],
      "type": "VEC3"
    },
    {
      "bufferView": 1,
      "byteOffset": 3931920,
      "componentType": 5126,
      "count": 65532,
      "max": [
        0.9999897480010986,
        0.9999971389770508,
        0.9999853372573853
      ],
      "min": [
        -0.9999954700469971,
        -0.9999849796295166,
        -0.9998936653137207
      ],
      "type": "VEC3"
    },
    {
      "bufferView": 0,
      "byteOffset": 2479056,
      "componentType": 5125,
      "count": 308169,
      "type": "SCALAR"
    },
    {
      "bufferView": 1,
      "byteOffset": 4718304,
      "componentType": 5126,
      "count": 65532,
      "max": [
        163.6800079345703,
        109.48200225830078,
        394.8600158691406
      ],
      "min": [
        3.1000001430511475,
        1.3720000982284546,
        0.08000000566244125
      ],
      "type": "VEC3"
    },
    {
      "bufferView": 1,
      "byteOffset": 5504688,
      "componentType": 5126,
      "count": 65532,
      "max": [
        0.9999998211860657,
        0.9999637007713318,
        0.9999991059303284
      ],
      "min": [
        -0.9996029138565063,
        -0.9999905228614807,
        -0.9999834299087524
      ],
      "type": "VEC3"
    },
    {
      "bufferView": 0,
      "byteOffset": 3711732,
      "componentType": 5125,
      "count": 311814,
      "type": "SCALAR"
    },
    {
      "bufferView": 1,
      "byteOffset": 6291072,
      "componentType": 5126,
      "count": 65532,
      "max": [
        163.8400115966797,
        106.79200744628906,
        394.968017578125
      ],
      "min": [
        0.4400000274181366,
        4.028000354766846,
        0.046000003814697266
      ],
      "type": "VEC3"
    },
    {
      "bufferView": 1,
      "byteOffset": 7077456,
      "componentType": 5126,
      "count": 65532,
      "max": [
        0.9999958872795105,
        0.9999925494194031,
        0.9999970197677612
      ],
      "min": [
        -0.9999731779098511,
        -0.9999891519546509,
        -0.9999902248382568
      ],
      "type": "VEC3"
    },
    {
      "bufferView": 0,
      "byteOffset": 4958988,
      "componentType": 5125,
      "count": 316461,
      "type": "SCALAR"
    },
    {
      "bufferView": 1,
      "byteOffset": 7863840,
      "componentType": 5126,
      "count": 65532,
      "max": [
        155.62600708007813,
        112.79400634765625,
        394.7020263671875
      ],
      "min": [
        1.8560000658035278,
        1.9280000925064087,
        0.00800000037997961
      ],
      "type": "VEC3"
    },
    {
      "bufferView": 1,
      "byteOffset": 8650224,
      "componentType": 5126,
      "count": 65532,
      "max": [
        0.9999980330467224,
        0.9999781847000122,
        0.9999918937683105
      ],
      "min": [
        -0.9999634027481079,
        -0.9999932050704956,
        -1.0
      ],
      "type": "VEC3"
    },
    {
      "bufferView": 0,
      "byteOffset": 6224832,
      "componentType": 5125,
      "count": 308280,
      "type": "SCALAR"
    },
    {
      "bufferView": 1,
      "byteOffset": 9436608,
      "componentType": 5126,
      "count": 65532,
      "max": [
        163.5600128173828,
        113.75200653076172,
        393.0480041503906
      ],
      "min": [
        13.552000999450684,
        1.6820000410079956,
        0.012000000104308128
      ],
      "type": "VEC3"
    },
    {
      "bufferView": 1,
      "byteOffset": 10222992,
      "componentType": 5126,
      "count": 65532,
      "max": [
        0.9999057650566101,
        0.9999935030937195,
        0.9999831914901733
      ],
      "min": [
        -0.9999918937683105,
        -0.9999579787254333,
        -1.0
      ],
      "type": "VEC3"
    },
    {
      "bufferView": 0,
      "byteOffset": 7457952,
      "componentType": 5125,
      "count": 317517,
      "type": "SCALAR"
    },
    {
      "bufferView": 1,
      "byteOffset": 11009376,
      "componentType": 5126,
      "count": 65532,
      "max": [
        162.34600830078125,
        113.39000701904297,
        393.864013671875
      ],
      "min": [
        2.1660001277923584,
        0.0,
        0.04000000283122063
      ],
      "type": "VEC3"
    },
    {
      "bufferView": 1,
      "byteOffset": 11795760,
      "componentType": 5126,
      "count": 65532,
      "max": [
        0.99998939037323,
        0.9999368786811829,
        0.9999945163726807
      ],
      "min": [
        -0.9999492764472961,
        -0.9999818205833435,
        -1.0
      ],
      "type": "VEC3"
    },
    {
      "bufferView": 0,
      "byteOffset": 8728020,
      "componentType": 5125,
      "count": 311052,
      "type": "SCALAR"
    },
    {
      "bufferView": 1,
      "byteOffset": 12582144,
      "componentType": 5126,
      "count": 65532,
      "max": [
        163.5760040283203,
        113.41400909423828,
        394.2860107421875
      ],
      "min": [
        0.2760000228881836,
        0.14400000870227814,
        0.012000000104308128
      ],
      "type": "VEC3"
    },
    {
      "bufferView": 1,
      "byteOffset": 13368528,
      "componentType": 5126,
      "count": 65532,
      "max": [
        0.9999739527702332,
        0.9999977946281433,
        0.999980092048645
      ],
      "min": [
        -0.9999521970748901,
        -0.9999967813491821,
        -0.9999998211860657
      ],
      "type": "VEC3"
    },
    {
      "bufferView": 0,
      "byteOffset": 9972228,
      "componentType": 5125,
      "count": 308568,
      "type": "SCALAR"
    },
    {
      "bufferView": 1,
      "byteOffset": 14154912,
      "componentType": 5126,
      "count": 65533,
      "max": [
        164.8820037841797,
        113.52800750732422,
        394.59002685546875
      ],
      "min": [
        0.07000000029802322,
        1.2040001153945923,
        0.036000002175569534
      ],
      "type": "VEC3"
    },
    {
      "bufferView": 1,
      "byteOffset": 14941308,
      "componentType": 5126,
      "count": 65533,
      "max": [
        0.9999993443489075,
        0.9999949336051941,
        0.9999951720237732
      ],
      "min": [
        -0.9999999403953552,
        -0.9999890327453613,
        -1.0
      ],
      "type": "VEC3"
    },
    {
      "bufferView": 0,
      "byteOffset": 11206500,
      "componentType": 5125,
      "count": 296121,
      "type": "SCALAR"
    },
    {
      "bufferView": 1,
      "byteOffset": 15727704,
      "componentType": 5126,
      "count": 65532,
      "max": [
        164.8820037841797,
        113.4840087890625,
        394.968017578125
      ],
      "min": [
        0.06200000271201134,
        0.0,
        0.012000000104308128
      ],
      "type": "VEC3"
    },
    {
      "bufferView": 1,
      "byteOffset": 16514088,
      "componentType": 5126,
      "count": 65532,
      "max": [
        0.9999589323997498,
        0.9999971389770508,
        0.9999935030937195
      ],
      "min": [
        -0.9999492764472961,
        -0.999992311000824,
        -1.0
      ],
      "type": "VEC3"
    },
    {
      "bufferView": 0,
      "byteOffset": 12390984,
      "componentType": 5125,
      "count": 248253,
      "type": "SCALAR"
    },
    {
      "bufferView": 1,
      "byteOffset": 17300472,
      "componentType": 5126,
      "count": 65532,
      "max": [
        164.19601440429688,
        113.75000762939453,
        394.9360046386719
      ],
      "min": [
        0.28200000524520874,
        1.156000018119812,
        0.0
      ],
      "type": "VEC3"
    },
    {
      "bufferView": 1,
      "byteOffset": 18086856,
      "componentType": 5126,
      "count": 65532,
      "max": [
        0.9999804496765137,
        0.999984860420227,
        0.999991774559021
      ],
      "min": [
        -0.9999831914901733,
        -0.999949038028717,
        -1.0
      ],
      "type": "VEC3"
    },
    {
      "bufferView": 0,
      "byteOffset": 13383996,
      "componentType": 5125,
      "count": 174870,
      "type": "SCALAR"
    },
    {
      "bufferView": 1,
      "byteOffset": 18873240,
      "componentType": 5126,
      "count": 52300,
      "max": [
        164.5780029296875,
        113.50800323486328,
        394.9900207519531
      ],
      "min": [
        0.1380000114440918,
        0.6980000138282776,
        0.0
      ],
      "type": "VEC3"
    },
    {
      "bufferView": 1,
      "byteOffset": 19500840,
      "componentType": 5126,
      "count": 52300,
      "max": [
        0.99998939037323,
        0.9999977946281433,
        0.9999790787696838
      ],
      "min": [
        -0.9999954700469971,
        -0.9999794960021973,
        -1.0
      ],
      "type": "VEC3"
    },
    {
      "bufferView": 0,
      "byteOffset": 14083476,
      "componentType": 5125,
      "count": 78975,
      "type": "SCALAR"
    }
  ],
  "asset": {
    "extras": {
      "author": "qmliu2009 (https://sketchfab.com/qmliu2009)",
      "license": "CC-BY-4.0 (http://creativecommons.org/licenses/by/4.0/)",
      "source": "https://sketchfab.com/3d-models/scan-the-world-michelangelo-s-david-6dad9f01a8c546b2a586d8795b44bb5e",
      "title": "Scan-the-world-michelangelo-s-david"
    },
    "generator": "Sketchfab-14.2.0",
    "version": "2.0"
  },
  "bufferViews": [
    {
      "buffer": 0,
      "byteLength": 14399376,
      "name": "floatBufferViews",
      "target": 34963
    },
    {
      "buffer": 0,
      "byteLength": 20128440,
      "byteOffset": 14399376,
      "byteStride": 12,
      "name": "floatBufferViews",
      "target": 34962
    }
  ],
  "buffers": [
    {
      "byteLength": 34527816,
      "uri": "scene.bin"
    }
  ],
  "materials": [
    {
      "doubleSided": true,
      "name": "Scene_-_Root",
      "pbrMetallicRoughness": {
        "metallicFactor": 0.0,
        "roughnessFactor": 0.6
      }
    }
  ],
  "meshes": [
    {
      "name": "Object_0",
      "primitives": [
        {
          "attributes": {
            "NORMAL": 1,
            "POSITION": 0
          },
          "indices": 2,
          "material": 0,
          "mode": 4
        }
      ]
    },
    {
      "name": "Object_1",
      "primitives": [
        {
          "attributes": {
            "NORMAL": 4,
            "POSITION": 3
          },
          "indices": 5,
          "material": 0,
          "mode": 4
        }
      ]
    },
    {
      "name": "Object_2",
      "primitives": [
        {
          "attributes": {
            "NORMAL": 7,
            "POSITION": 6
          },
          "indices": 8,
          "material": 0,
          "mode": 4
        }
      ]
    },
    {
      "name": "Object_3",
      "primitives": [
        {
          "attributes": {
            "NORMAL": 10,
            "POSITION": 9
          },
          "indices": 11,
          "material": 0,
          "mode": 4
        }
      ]
    },
    {
      "name": "Object_4",
      "primitives": [
        {
          "attributes": {
            "NORMAL": 13,
            "POSITION": 12
          },
          "indices": 14,
          "material": 0,
          "mode": 4
        }
      ]
    },
    {
      "name": "Object_5",
      "primitives": [
        {
          "attributes": {
            "NORMAL": 16,
            "POSITION": 15
          },
          "indices": 17,
          "material": 0,
          "mode": 4
        }
      ]
    },
    {
      "name": "Object_6",
      "primitives": [
        {
          "attributes": {
            "NORMAL": 19,
            "POSITION": 18
          },
          "indices": 20,
          "material": 0,
          "mode": 4
        }
      ]
    },
    {
      "name": "Object_7",
      "primitives": [
        {
          "attributes": {
            "NORMAL": 22,
            "POSITION": 21
          },
          "indices": 23,
          "material": 0,
          "mode": 4
        }
      ]
    },
    {
      "name": "Object_8",
      "primitives": [
        {
          "attributes": {
            "NORMAL": 25,
            "POSITION": 24
          },
          "indices": 26,
          "material": 0,
          "mode": 4
        }
      ]
    },
    {
      "name": "Object_9",
      "primitives": [
        {
          "attributes": {
            "NORMAL": 28,
            "POSITION": 27
          },
          "indices": 29,
          "material": 0,
          "mode": 4
        }
      ]
    },
    {
      "name": "Object_10",
      "primitives": [
        {
          "attributes": {
            "NORMAL": 31,
            "POSITION": 30
          },
          "indices": 32,
          "material": 0,
          "mode": 4
        }
      ]
    },
    {
      "name": "Object_11",
      "primitives": [
        {
          "attributes": {
            "NORMAL": 34,
            "POSITION": 33
          },
          "indices": 35,
          "material": 0,
          "mode": 4
        }
      ]
    },
    {
      "name": "Object_12",
      "primitives": [
        {
          "attributes": {
            "NORMAL": 37,
            "POSITION": 36
          },
          "indices": 38,
          "material": 0,
          "mode": 4
        }
      ]
    }
  ],
  "nodes": [
    {
      "children": [
        1
      ],
      "matrix": [
        1.0,
        0.0,
        0.0,
        0.0,
        0.0,
        2.220446049250313e-16,
        -1.0,
        0.0,
        0.0,
        1.0,
        2.220446049250313e-16,
        0.0,
        0.0,
        0.0,
        0.0,
        1.0
      ],
      "name": "Sketchfab_model"
    },
    {
      "children": [
        2,
        3,
        4,
        5,
        6,
        7,
        8,
        9,
        10,
        11,
        12,
        13,
        14
      ],
      "name": "scan-the-world-michelangelo-s-david.stl.cleaner.materialmerger.gles"
    },
    {
      "mesh": 0,
      "name": "Object_2"
    },
    {
      "mesh": 1,
      "name": "Object_3"
    },
    {
      "mesh": 2,
      "name": "Object_4"
    },
    {
      "mesh": 3,
      "name": "Object_5"
    },
    {
      "mesh": 4,
      "name": "Object_6"
    },
    {
      "mesh": 5,
      "name": "Object_7"
    },
    {
      "mesh": 6,
      "name": "Object_8"
    },
    {
      "mesh": 7,
      "name": "Object_9"
    },
    {
      "mesh": 8,
      "name": "Object_10"
    },
    {
      "mesh": 9,
      "name": "Object_11"
    },
    {
      "mesh": 10,
      "name": "Object_12"
    },
    {
      "mesh": 11,
      "name": "Object_13"
    },
    {
      "mesh": 12,
      "name": "Object_14"
    }
  ],
  "scene": 0,
  "scenes": [
    {
      "name": "Sketchfab_Scene",
      "nodes": [
        0
      ]
    }
  ]
}
