# Blender 4.1.1
# www.blender.org
mtllib exit sign.mtl
o Exit_Sign
v -0.200000 -1.000000 1.500000
v -0.200000 0.500000 1.500000
v -0.200000 -1.000000 -1.500000
v -0.200000 0.500000 -1.500000
v 0.200000 -0.945553 1.445553
v 0.200000 0.445553 1.445553
v 0.200000 -0.945553 -1.445553
v 0.200000 0.445553 -1.445553
v 0.200000 0.500000 -1.500000
v 0.200000 -1.000000 -1.500000
v 0.200000 -1.000000 1.500000
v 0.200000 0.500000 1.500000
v -0.280000 0.800000 1.500000
v -0.280000 0.800000 -1.500000
v 0.280000 0.800000 1.500000
v 0.280000 0.800000 -1.500000
v 0.201600 0.500000 -1.500000
v 0.201600 0.800000 -1.500000
v 0.201600 0.500000 1.500000
v 0.201600 0.800000 1.500000
v -0.200536 0.500000 -1.500000
v -0.200536 0.800000 1.500000
v -0.200536 0.800000 -1.500000
v -0.200536 0.500000 1.500000
v -0.280000 0.560000 1.500000
v -0.200536 0.500000 1.500000
v -0.273951 0.537039 1.500000
v -0.256726 0.517574 1.500000
v -0.230946 0.504567 1.500000
v -0.200536 0.500000 -1.500000
v -0.280000 0.560000 -1.500000
v -0.230946 0.504567 -1.500000
v -0.256726 0.517574 -1.500000
v -0.273951 0.537039 -1.500000
v 0.201600 0.500000 1.500000
v 0.280000 0.560000 1.500000
v 0.231602 0.504567 1.500000
v 0.257037 0.517574 1.500000
v 0.274032 0.537039 1.500000
v 0.280000 0.560000 -1.500000
v 0.201600 0.500000 -1.500000
v 0.274032 0.537039 -1.500000
v 0.257037 0.517574 -1.500000
v 0.231602 0.504567 -1.500000
v 0.150000 0.445553 -1.445553
v 0.150000 -0.945553 -1.445553
v 0.150000 -0.945553 1.445553
v 0.150000 0.445553 1.445553
vn -1.0000 -0.0000 -0.0000
vn -0.0000 -0.0000 -1.0000
vn -0.0000 -1.0000 -0.0000
vn -0.0000 -0.0000 1.0000
vn -0.0000 1.0000 -0.0000
vn 1.0000 -0.0000 -0.0000
vn -0.1485 -0.9889 -0.0000
vn -0.4504 -0.8928 -0.0000
vn -0.7489 -0.6627 -0.0000
vn -0.9670 -0.2547 -0.0000
vn 0.1505 -0.9886 -0.0000
vn 0.4553 -0.8903 -0.0000
vn 0.7533 -0.6577 -0.0000
vn 0.9678 -0.2516 -0.0000
vt 0.375000 0.000000
vt 0.625000 0.000000
vt 0.625000 0.250000
vt 0.375000 0.250000
vt 0.625000 0.500000
vt 0.375000 0.500000
vt 0.935291 0.847124
vt 0.035598 0.847125
vt 0.375000 0.750000
vt 0.625000 0.750000
vt 0.625000 1.000000
vt 0.375000 1.000000
vt 0.125000 0.500000
vt 0.125000 0.750000
vt 0.875000 0.500000
vt 0.875000 0.750000
vt 0.935291 0.152875
vt 0.952234 0.125703
vt 0.952234 0.874297
vt 0.035597 0.152875
vt 0.018654 0.125703
vt 0.018654 0.874297
vt 0.375000 0.964525
vt 0.625000 0.964525
vt 0.412500 1.000000
vt 0.398149 0.997300
vt 0.385983 0.989610
vt 0.377855 0.978101
vt 0.375000 0.785000
vt 0.377855 0.771606
vt 0.385983 0.760251
vt 0.398149 0.752664
vt 0.412500 0.750000
vt 0.625000 0.785000
vt 0.375000 0.285475
vt 0.377855 0.271899
vt 0.385984 0.260390
vt 0.398149 0.252700
vt 0.412500 0.250000
vt 0.625000 0.285475
vt 0.412500 0.500000
vt 0.412500 0.750000
vt 0.839525 0.500000
vt 0.839525 0.750000
vt 0.660000 0.500000
vt 0.660000 0.750000
vt 0.160475 0.500000
vt 0.340000 0.500000
vt 0.340000 0.750000
vt 0.160475 0.750000
vt 0.375000 0.465000
vt 0.625000 0.465000
vt 0.398149 0.497336
vt 0.385983 0.489749
vt 0.377855 0.478394
vt 0.412500 0.000000
vt 0.146899 0.750000
vt 0.146899 0.500000
vt 0.398149 0.000000
vt 0.398149 0.250000
vt 0.353394 0.500000
vt 0.353394 0.750000
vt 0.398149 0.500000
vt 0.398149 0.750000
s 0
usemtl exit_text
f 46/17/6 45/7/6 48/8/6 47/20/6
usemtl metalic_white
f 1/1/1 2/2/1 4/3/1 3/4/1
f 3/4/2 4/3/2 9/5/2 10/6/2
f 11/9/4 12/10/4 2/11/4 1/12/4
f 3/13/3 10/6/3 11/9/3 1/14/3
f 9/5/5 4/15/5 2/16/5 12/10/5
usemtl white
f 8/7/3 6/8/3 48/8/3 45/7/3
f 8/7/6 7/17/6 10/18/6 9/19/6
f 7/17/6 5/20/6 11/21/6 10/18/6
f 6/8/6 8/7/6 9/19/6 12/22/6
f 5/20/6 6/8/6 12/22/6 11/21/6
f 24/23/4 22/24/4 13/11/4 25/25/4 27/26/4 28/27/4 29/28/4 26/23/4
f 35/29/4 37/30/4 38/31/4 39/32/4 36/33/4 15/10/4 20/34/4 19/29/4
f 30/35/2 32/36/2 33/37/2 34/38/2 31/39/2 14/3/2 23/40/2 21/35/2
f 40/41/6 16/5/6 15/10/6 36/42/6
f 23/43/5 14/15/5 13/16/5 22/44/5
f 16/5/5 18/45/5 20/46/5 15/10/5
f 21/47/3 17/48/3 19/49/3 24/50/3
f 17/51/2 18/52/2 16/5/2 40/41/2 42/53/2 43/54/2 44/55/2 41/51/2
f 21/35/2 23/40/2 18/52/2 17/51/2
f 17/48/5 41/48/5 35/49/5 19/49/5
f 25/56/1 13/2/1 14/3/1 31/39/1
f 18/45/5 23/43/5 22/44/5 20/46/5
f 19/29/4 20/34/4 22/24/4 24/23/4
f 30/47/7 26/50/7 29/57/7 32/58/7
f 32/58/8 29/57/8 28/14/8 33/13/8
f 33/4/9 28/1/9 27/59/9 34/60/9
f 34/60/10 27/59/10 25/56/10 31/39/10
f 35/49/11 41/48/11 44/61/11 37/62/11
f 37/62/12 44/61/12 43/6/12 38/9/12
f 38/9/13 43/6/13 42/63/13 39/64/13
f 39/64/14 42/63/14 40/41/14 36/42/14
f 30/47/5 21/47/5 24/50/5 26/50/5
f 7/17/4 8/7/4 45/7/4 46/17/4
f 6/8/2 5/20/2 47/20/2 48/8/2
f 5/20/5 7/17/5 46/17/5 47/20/5
